<svg width="50" height="50" viewBox="0 0 50 50" fill="none" xmlns="http://www.w3.org/2000/svg">
<path d="M12.5 12.5H15.625V18.75H12.5V12.5ZM12.5 21.875H15.625V28.125H12.5V21.875ZM21.875 12.5H25V18.75H21.875V12.5ZM21.875 21.875H25V28.125H21.875V21.875ZM12.5 31.25H15.625V37.5H12.5V31.25ZM21.875 31.25H25V37.5H21.875V31.25Z" fill="white"/>
<path d="M46.875 21.875C46.875 21.0462 46.5458 20.2513 45.9597 19.6653C45.3736 19.0792 44.5788 18.75 43.75 18.75H34.375V6.25C34.375 5.4212 34.0458 4.62634 33.4597 4.04029C32.8736 3.45424 32.0788 3.125 31.25 3.125H6.24999C5.42119 3.125 4.62633 3.45424 4.04028 4.04029C3.45423 4.62634 3.12499 5.4212 3.12499 6.25V46.875H46.875V21.875ZM6.24999 6.25H31.25V43.75H6.24999V6.25ZM34.375 43.75V21.875H43.75V43.75H34.375Z" fill="white"/>
</svg>
