<svg width="50" height="50" viewBox="0 0 50 50" fill="none" xmlns="http://www.w3.org/2000/svg">
<path fill-rule="evenodd" clip-rule="evenodd" d="M25 2.91664C22.0858 2.91276 19.2685 3.96216 17.0669 5.87151C14.8654 7.78086 13.4281 10.4215 13.0198 13.3069C12.6115 16.1923 13.2597 19.1281 14.845 21.5733C16.4303 24.0185 18.8459 25.8085 21.6467 26.6133C17.6667 27.0966 14.2533 28.5033 11.68 31.04C8.40667 34.2633 6.75 39.0666 6.75 45.3333C6.75 45.7532 6.91681 46.156 7.21375 46.4529C7.51068 46.7498 7.91341 46.9166 8.33333 46.9166C8.75326 46.9166 9.15599 46.7498 9.45292 46.4529C9.74985 46.156 9.91667 45.7532 9.91667 45.3333C9.91667 39.6 11.4267 35.7333 13.9033 33.2933C16.3833 30.85 20.09 29.5833 25 29.5833C29.91 29.5833 33.6167 30.85 36.1 33.2933C38.5733 35.7366 40.0833 39.6 40.0833 45.3333C40.0833 45.7532 40.2501 46.156 40.5471 46.4529C40.844 46.7498 41.2467 46.9166 41.6667 46.9166C42.0866 46.9166 42.4893 46.7498 42.7863 46.4529C43.0832 46.156 43.25 45.7532 43.25 45.3333C43.25 39.0666 41.5933 34.2666 38.3167 31.04C35.75 28.5066 32.3333 27.0966 28.3533 26.6133C31.1448 25.7994 33.5494 24.0067 35.1265 21.5639C36.7035 19.121 37.3473 16.1916 36.9399 13.3126C36.5325 10.4336 35.1012 7.79787 32.9082 5.8885C30.7153 3.97913 27.9077 2.92405 25 2.91664ZM16.0833 15C16.0833 12.6351 17.0228 10.3671 18.695 8.69493C20.3672 7.02273 22.6352 6.0833 25 6.0833C27.3648 6.0833 29.6328 7.02273 31.305 8.69493C32.9772 10.3671 33.9167 12.6351 33.9167 15C33.9167 17.3648 32.9772 19.6328 31.305 21.305C29.6328 22.9772 27.3648 23.9166 25 23.9166C22.6352 23.9166 20.3672 22.9772 18.695 21.305C17.0228 19.6328 16.0833 17.3648 16.0833 15Z" fill="white"/>
</svg>
