<svg width="130" height="60" viewBox="0 0 130 60" fill="none" xmlns="http://www.w3.org/2000/svg">
<path d="M123.906 34.9945C123.906 38.9414 122.195 42.3375 118.955 44.8172C114.796 48.0023 108.332 49.6875 100.263 49.6875C84.8605 49.6875 74.5062 40.7695 63.5477 31.3289C55.5852 24.4711 45.7031 15.9375 37.5781 15.9375C33.6629 15.9375 28.8641 18.1336 25.0555 21.668C20.699 25.8258 18.3859 30.3763 18.2812 34.9945C18.2812 37.8773 19.4187 40.3336 21.4805 41.9133C23.3949 43.3805 26.0203 44.0625 29.7375 44.0625C36.7199 44.0625 45.2918 37.2656 48.1102 35.0414C48.9243 34.3968 50.2599 33.9279 51.8232 33.7378C53.3864 33.5477 55.0493 33.652 56.4459 34.0277C57.8425 34.4035 58.8585 35.0199 59.2704 35.7414C59.6823 36.4629 59.4563 37.2304 58.6422 37.875C54.1176 41.4563 50.248 43.9688 46.4547 45.7922C41.0059 48.4125 35.5469 49.6875 29.7375 49.6875C21.6684 49.6875 15.2039 48.0023 11.0449 44.8172C7.80508 42.3375 6.09375 38.9414 6.09375 34.9945C6.09375 24.6891 18.068 10.3125 37.5781 10.3125C52.9801 10.3125 63.3344 19.2305 74.293 28.6711C82.2656 35.5289 92.1527 44.0625 100.263 44.0625C103.98 44.0625 106.605 43.3805 108.52 41.9133C110.581 40.3336 111.719 37.8773 111.719 34.9945C111.616 30.3765 109.304 25.826 104.95 21.668C101.141 18.1336 96.3422 15.9375 92.4219 15.9375C89.5172 15.9375 86.0184 17.1094 82.0168 19.4133C81.0067 19.9957 79.5367 20.3691 77.9301 20.4513C76.3235 20.5335 74.712 20.3178 73.45 19.8516C72.188 19.3854 71.379 18.7069 71.201 17.9654C71.0229 17.2239 71.4903 16.4801 72.5004 15.8977C79.0258 12.1406 85.541 10.3125 92.4219 10.3125C101.385 10.3125 109.687 13.4555 115.857 19.1625C121.033 24.102 123.781 29.5081 123.906 34.9945Z" fill="white"/>
<path d="M95.581 33.2727H89L98.2134 18V26.7273H104.794L95.581 42V33.2727Z" fill="white"/>
</svg>
