<svg width="44" height="44" viewBox="0 0 44 44" fill="none" xmlns="http://www.w3.org/2000/svg">
<path d="M3.71595 36.0937C6.07243 31.9579 9.75207 28.7354 14.1625 26.9448C11.9692 25.2999 10.3491 23.0065 9.53168 20.3897C8.71423 17.7728 8.74087 14.965 9.60784 12.3641C10.4748 9.76322 12.1381 7.50103 14.3622 5.89799C16.5863 4.29496 19.2584 3.43234 22 3.43234C24.7416 3.43234 27.4137 4.29496 29.6378 5.89799C31.8619 7.50103 33.5252 9.76322 34.3922 12.3641C35.2592 14.965 35.2858 17.7728 34.4683 20.3897C33.6509 23.0065 32.0308 25.2999 29.8375 26.9448C34.248 28.7354 37.9276 31.9579 40.2841 36.0937C40.4301 36.3285 40.5274 36.5903 40.5702 36.8634C40.6131 37.1366 40.6006 37.4156 40.5334 37.6838C40.4663 37.952 40.3459 38.204 40.1795 38.4247C40.013 38.6455 39.8039 38.8305 39.5644 38.9688C39.325 39.1072 39.0603 39.1959 38.7859 39.2299C38.5115 39.2638 38.2331 39.2422 37.9672 39.1664C37.7013 39.0906 37.4533 38.9621 37.2381 38.7886C37.0229 38.6151 36.8447 38.4 36.7142 38.1562C33.5999 32.7731 28.0999 29.5625 22 29.5625C15.9002 29.5625 10.4002 32.7748 7.28579 38.1562C7.00304 38.6109 6.55455 38.9378 6.03516 39.0678C5.51577 39.1978 4.96618 39.1207 4.50258 38.8529C4.03897 38.585 3.6977 38.1474 3.5509 37.6325C3.40411 37.1176 3.46329 36.5658 3.71595 36.0937ZM30.9375 16.5C30.9375 14.7323 30.4133 13.0044 29.4313 11.5346C28.4492 10.0648 27.0534 8.91928 25.4202 8.24283C23.7871 7.56637 21.9901 7.38937 20.2564 7.73423C18.5227 8.07909 16.9302 8.9303 15.6802 10.1802C14.4303 11.4302 13.5791 13.0227 13.2342 14.7564C12.8894 16.4901 13.0664 18.2871 13.7428 19.9202C14.4193 21.5533 15.5648 22.9492 17.0346 23.9313C18.5044 24.9133 20.2323 25.4375 22 25.4375C24.3695 25.4348 26.6413 24.4923 28.3168 22.8168C29.9923 21.1412 30.9348 18.8695 30.9375 16.5Z" fill="white"/>
</svg>
