<svg width="30" height="30" viewBox="0 0 30 30" fill="none" xmlns="http://www.w3.org/2000/svg">
<path d="M7.5 6.5625C7.5 6.06522 7.69754 5.58831 8.04918 5.23667C8.40081 4.88504 8.87772 4.6875 9.375 4.6875C9.87228 4.6875 10.3492 4.88504 10.7008 5.23667C11.0525 5.58831 11.25 6.06522 11.25 6.5625C11.25 7.05978 11.0525 7.53669 10.7008 7.88832C10.3492 8.23996 9.87228 8.4375 9.375 8.4375C8.87772 8.4375 8.40081 8.23996 8.04918 7.88832C7.69754 7.53669 7.5 7.05978 7.5 6.5625ZM9.375 2.8125C8.38044 2.8125 7.42661 3.20759 6.72335 3.91085C6.02009 4.61411 5.625 5.56794 5.625 6.5625C5.625 7.55706 6.02009 8.51089 6.72335 9.21415C7.42661 9.91741 8.38044 10.3125 9.375 10.3125C10.3696 10.3125 11.3234 9.91741 12.0267 9.21415C12.7299 8.51089 13.125 7.55706 13.125 6.5625C13.125 5.56794 12.7299 4.61411 12.0267 3.91085C11.3234 3.20759 10.3696 2.8125 9.375 2.8125ZM4.21875 12.1875C3.59715 12.1875 3.00101 12.4344 2.56147 12.874C2.12193 13.3135 1.875 13.9096 1.875 14.5312V14.7656C1.875 15.0234 1.875 16.4953 2.86312 17.9156C3.57281 18.9356 4.72219 19.8347 6.51844 20.2969C6.88058 19.6046 7.449 19.0421 8.145 18.6872C5.96062 18.4519 4.92281 17.5931 4.4025 16.845C3.98374 16.2319 3.75663 15.5081 3.75 14.7656V14.5312C3.75 14.4069 3.79939 14.2877 3.88729 14.1998C3.9752 14.1119 4.09443 14.0625 4.21875 14.0625H9.84375C9.84375 13.4006 9.96844 12.7688 10.1953 12.1875H4.21875ZM27.1369 17.9156C26.4272 18.9356 25.2778 19.8347 23.4816 20.2969C23.1194 19.6047 22.551 19.0421 21.855 18.6872C24.0394 18.4519 25.0772 17.5931 25.5975 16.845C26.0163 16.2319 26.2434 15.5081 26.25 14.7656V14.5312C26.25 14.4069 26.2006 14.2877 26.1127 14.1998C26.0248 14.1119 25.9056 14.0625 25.7812 14.0625H20.1562C20.1562 13.4006 20.0316 12.7688 19.8047 12.1875H25.7812C26.4029 12.1875 26.999 12.4344 27.4385 12.874C27.8781 13.3135 28.125 13.9096 28.125 14.5312V14.7656C28.125 15.0234 28.125 16.4953 27.1369 17.9156ZM18.75 6.5625C18.75 6.06522 18.9475 5.58831 19.2992 5.23667C19.6508 4.88504 20.1277 4.6875 20.625 4.6875C21.1223 4.6875 21.5992 4.88504 21.9508 5.23667C22.3025 5.58831 22.5 6.06522 22.5 6.5625C22.5 7.05978 22.3025 7.53669 21.9508 7.88832C21.5992 8.23996 21.1223 8.4375 20.625 8.4375C20.1277 8.4375 19.6508 8.23996 19.2992 7.88832C18.9475 7.53669 18.75 7.05978 18.75 6.5625ZM20.625 2.8125C19.6304 2.8125 18.6766 3.20759 17.9734 3.91085C17.2701 4.61411 16.875 5.56794 16.875 6.5625C16.875 7.55706 17.2701 8.51089 17.9734 9.21415C18.6766 9.91741 19.6304 10.3125 20.625 10.3125C21.6196 10.3125 22.5734 9.91741 23.2766 9.21415C23.9799 8.51089 24.375 7.55706 24.375 6.5625C24.375 5.56794 23.9799 4.61411 23.2766 3.91085C22.5734 3.20759 21.6196 2.8125 20.625 2.8125ZM15 12.1875C14.5027 12.1875 14.0258 12.385 13.6742 12.7367C13.3225 13.0883 13.125 13.5652 13.125 14.0625C13.125 14.5598 13.3225 15.0367 13.6742 15.3883C14.0258 15.74 14.5027 15.9375 15 15.9375C15.4973 15.9375 15.9742 15.74 16.3258 15.3883C16.6775 15.0367 16.875 14.5598 16.875 14.0625C16.875 13.5652 16.6775 13.0883 16.3258 12.7367C15.9742 12.385 15.4973 12.1875 15 12.1875ZM11.25 14.0625C11.25 13.0679 11.6451 12.1141 12.3483 11.4108C13.0516 10.7076 14.0054 10.3125 15 10.3125C15.9946 10.3125 16.9484 10.7076 17.6516 11.4108C18.3549 12.1141 18.75 13.0679 18.75 14.0625C18.75 15.0571 18.3549 16.0109 17.6516 16.7141C16.9484 17.4174 15.9946 17.8125 15 17.8125C14.0054 17.8125 13.0516 17.4174 12.3483 16.7141C11.6451 16.0109 11.25 15.0571 11.25 14.0625ZM7.5 22.0312C7.5 21.4096 7.74693 20.8135 8.18647 20.374C8.62601 19.9344 9.22215 19.6875 9.84375 19.6875H20.1562C20.464 19.6875 20.7688 19.7481 21.0532 19.8659C21.3375 19.9837 21.5959 20.1563 21.8135 20.374C22.0312 20.5916 22.2038 20.85 22.3216 21.1343C22.4394 21.4187 22.5 21.7235 22.5 22.0312V22.2656C22.5 22.5234 22.5 23.9953 21.5119 25.4156C20.4806 26.8978 18.5213 28.125 15 28.125C11.4797 28.125 9.51937 26.8978 8.48812 25.4156C7.5 23.9953 7.5 22.5244 7.5 22.2656V22.0312ZM9.84375 21.5625C9.71943 21.5625 9.6002 21.6119 9.51229 21.6998C9.42439 21.7877 9.375 21.9069 9.375 22.0312V22.2656C9.375 22.4203 9.37594 23.4094 10.0275 24.345C10.6369 25.2216 11.9588 26.25 15 26.25C18.0422 26.25 19.3631 25.2216 19.9725 24.345C20.3913 23.7319 20.6184 23.0081 20.625 22.2656V22.0312C20.625 21.9069 20.5756 21.7877 20.4877 21.6998C20.3998 21.6119 20.2806 21.5625 20.1562 21.5625H9.84375Z" fill="white"/>
</svg>
