<svg width="30" height="30" viewBox="0 0 30 30" fill="none" xmlns="http://www.w3.org/2000/svg">
<g clip-path="url(#clip0_52_220)">
<path d="M24.1856 9.37499C23.7512 7.24801 22.5921 5.3377 20.9061 3.97012C19.2202 2.60253 17.1118 1.86244 14.941 1.87616C12.7701 1.88988 10.6713 2.65656 9.00277 4.04535C7.33422 5.43413 6.19936 7.35894 5.79187 9.49124C4.06159 9.79923 2.5095 10.7444 1.4417 12.1403C0.373898 13.5362 -0.132112 15.2815 0.0234584 17.0321C0.179029 18.7826 0.984887 20.4114 2.28211 21.5971C3.57934 22.7828 5.27377 23.4395 7.03125 23.4375H7.5V21.5625H7.03125C5.69302 21.566 4.40594 21.0487 3.44236 20.12C2.47878 19.1914 1.9143 17.9243 1.86838 16.5868C1.82246 15.2494 2.29869 13.9465 3.19631 12.954C4.09392 11.9614 5.34249 11.3571 6.67781 11.2687L7.4625 11.2153L7.54687 10.4344C7.73676 8.69047 8.53245 7.06847 9.79532 5.85093C11.0582 4.63339 12.7082 3.8975 14.4579 3.77145C16.2075 3.64541 17.946 4.1372 19.3703 5.16116C20.7946 6.18511 21.8146 7.67632 22.2525 9.37499H24.1856Z" fill="white"/>
<path d="M26.25 11.25H16.875C16.3779 11.2505 15.9012 11.4482 15.5497 11.7997C15.1982 12.1512 15.0005 12.6279 15 13.125V16.875H11.25C10.7529 16.8755 10.2762 17.0732 9.92472 17.4247C9.5732 17.7762 9.3755 18.2529 9.375 18.75V28.125H28.125V13.125C28.1245 12.6279 27.9268 12.1512 27.5753 11.7997C27.2238 11.4482 26.7471 11.2505 26.25 11.25ZM11.25 26.25V18.75H15V26.25H11.25ZM26.25 26.25H16.875V13.125H26.25V26.25Z" fill="white"/>
<path d="M18.75 15H20.625V18.75H18.75V15ZM22.5 15H24.375V18.75H22.5V15ZM18.75 20.625H20.625V24.375H18.75V20.625ZM22.5 20.625H24.375V24.375H22.5V20.625Z" fill="white"/>
</g>
<defs>
<clipPath id="clip0_52_220">
<rect width="30" height="30" fill="white"/>
</clipPath>
</defs>
</svg>
