<svg width="30" height="30" viewBox="0 0 30 30" fill="none" xmlns="http://www.w3.org/2000/svg">
<path d="M2.5 15C2.5 10.2863 2.5 7.92875 3.965 6.465C5.42875 5 7.78625 5 12.5 5H17.5C22.2137 5 24.5712 5 26.035 6.465C27.5 7.92875 27.5 10.2863 27.5 15C27.5 19.7137 27.5 22.0712 26.035 23.535C24.5712 25 22.2137 25 17.5 25H12.5C7.78625 25 5.42875 25 3.965 23.535C2.5 22.0712 2.5 19.7137 2.5 15Z" stroke="white" stroke-width="1.5"/>
<path d="M12.5 20.625H7.5M10 16.875H7.5M2.5 12.5H27.5" stroke="white" stroke-width="1.5" stroke-linecap="round"/>
<path d="M17.5 18.75C17.5 17.5712 17.5 16.9825 17.8663 16.6163C18.2325 16.25 18.8212 16.25 20 16.25C21.1788 16.25 21.7675 16.25 22.1338 16.6163C22.5 16.9825 22.5 17.5712 22.5 18.75C22.5 19.9288 22.5 20.5175 22.1338 20.8838C21.7675 21.25 21.1788 21.25 20 21.25C18.8212 21.25 18.2325 21.25 17.8663 20.8838C17.5 20.5175 17.5 19.9288 17.5 18.75Z" stroke="white" stroke-width="1.5"/>
</svg>
